<?xml version="1.0" encoding="iso-8859-1"?>
<!-- Generator: Adobe Illustrator 18.1.1, SVG Export Plug-In . SVG Version: 6.00 Build 0)  -->
<svg version="1.1" id="Capa_1" xmlns="http://www.w3.org/2000/svg" xmlns:xlink="http://www.w3.org/1999/xlink" x="0px" y="0px"
	 viewBox="0 0 53.937 53.937" style="enable-background:new 0 0 53.937 53.937;" xml:space="preserve">
<g>
	<path style="fill:#010002;" d="M26.969,0C12.099,0,0,12.099,0,26.969C0,41.84,12.099,53.937,26.969,53.937
		S53.937,41.84,53.937,26.969C53.937,12.099,41.839,0,26.969,0z M26.969,49.989c-1.971,0-3.874-0.274-5.7-0.742
		c0.002-0.038,0.011-0.074,0.011-0.113V25.93l1.336,1.336c0.833,0.833,2.183,0.833,3.017,0c0.833-0.833,0.833-2.184,0-3.017
		l-4.977-4.977c0-0.001-0.001-0.001-0.002-0.002l-1.507-1.508L17.64,19.27c-0.001,0.001-0.002,0.001-0.002,0.001l-5.333,5.333
		c-0.833,0.833-0.833,2.184,0,3.017c0.417,0.417,0.962,0.625,1.508,0.625s1.092-0.208,1.508-0.625l1.692-1.691v21.765
		C9.296,43.972,3.947,36.093,3.947,26.969c0-12.694,10.328-23.021,23.021-23.021c1.545,0,3.053,0.158,4.514,0.45
		c-0.028,0.139-0.043,0.28-0.043,0.428V28.03l-1.336-1.336c-0.833-0.833-2.184-0.833-3.017,0s-0.833,2.184,0,3.017l4.976,4.977
		c0,0.001,0.001,0.001,0.002,0.002l1.507,1.508l1.507-1.508c0.001-0.001,0.002-0.001,0.002-0.001l5.333-5.333
		c0.833-0.833,0.833-2.184,0-3.017s-2.183-0.833-3.017,0l-1.691,1.691V5.681C44.077,9.129,49.99,17.368,49.99,26.969
		C49.991,39.662,39.662,49.989,26.969,49.989z"/>
</g>
<g>
</g>
<g>
</g>
<g>
</g>
<g>
</g>
<g>
</g>
<g>
</g>
<g>
</g>
<g>
</g>
<g>
</g>
<g>
</g>
<g>
</g>
<g>
</g>
<g>
</g>
<g>
</g>
<g>
</g>
</svg>
